<svg
  xmlns="http://www.w3.org/2000/svg"
  width="24"
  height="24"
  viewBox="0 0 24 24"
  fill="none"
  stroke="#ffffff"
  strokeWidth="2"
  strokeLinecap="round"
  strokeLinejoin="round"
>
  <path d="M20 14c0 1.1-.9 2-2 2-1.1 0-2-.9-2-2 0-1.1.9-2 2-2 1.1 0 2 .9 2 2z"></path>
  <path d="M12 2C8.1 5.9 4.8 9.2 2 12c5.3 0 8.9 6.6 10 10 1.1-3.4 4.7-10 10-10-3.2-2.9-7.4-6.1-10-10z"></path>
  <path d="M4.2 13c-1.1 2.7-2.1 5.3-2.8 8 .8-.7 1.7-1.4 2.8-2.1l-2.8-5.9zM19.8 13l-2.8 5.9c1.1.7 2 1.4 2.8 2.1.8-2.7 1.7-5.3 2.8-8l-2.8.1z"></path>
  <path d="M12 22c-.7 0-1.4-.1-2-.2.7-1.3 1.4-2.6 2-4 .6 1.4 1.3 2.7 2 4-.7.1-1.4.2-2 .2z"></path>
</svg>
