<svg width="47" height="42" viewBox="0 0 47 42" fill="none" xmlns="http://www.w3.org/2000/svg">
<path d="M8.67097 0.292733C8.28045 -0.0977913 7.64728 -0.0977913 7.25676 0.292733L0.892799 6.65669C0.502275 7.04722 0.502275 7.68038 0.892799 8.07091C1.28332 8.46143 1.91649 8.46143 2.30701 8.07091L7.96387 2.41405L13.6207 8.07091C14.0112 8.46143 14.6444 8.46143 15.0349 8.07091C15.4255 7.68038 15.4255 7.04722 15.0349 6.65669L8.67097 0.292733ZM8.96387 33.1985L8.96387 0.99984H6.96387L6.96387 33.1985H8.96387Z" fill="white"/>
<path d="M41.6714 34.6776C42.0619 34.287 42.0619 33.6539 41.6714 33.2634L35.3074 26.8994C34.9169 26.5089 34.2837 26.5089 33.8932 26.8994C33.5027 27.2899 33.5027 27.9231 33.8932 28.3136L39.5501 33.9705L33.8932 39.6273C33.5027 40.0178 33.5027 40.651 33.8932 41.0415C34.2837 41.4321 34.9169 41.4321 35.3074 41.0415L41.6714 34.6776ZM7 34.9705H40.9643V32.9705H7V34.9705Z" fill="white"/>
<path d="M16.7769 27.437V20.8916H17.7485V21.9143H17.8337C17.9701 21.5649 18.1903 21.2935 18.4942 21.1004C18.7982 20.9043 19.1633 20.8063 19.5894 20.8063C20.0212 20.8063 20.3806 20.9043 20.6675 21.1004C20.9573 21.2935 21.1832 21.5649 21.3451 21.9143H21.4133C21.5809 21.5762 21.8323 21.3078 22.1675 21.1089C22.5028 20.9072 22.9047 20.8063 23.3735 20.8063C23.9587 20.8063 24.4374 20.9896 24.8096 21.356C25.1817 21.7197 25.3678 22.2864 25.3678 23.0563V27.437H24.3621V23.0563C24.3621 22.5734 24.23 22.2282 23.9658 22.0208C23.7016 21.8134 23.3905 21.7097 23.0326 21.7097C22.5724 21.7097 22.2158 21.8489 21.963 22.1274C21.7101 22.4029 21.5837 22.7524 21.5837 23.1756V27.437H20.561V22.9541C20.561 22.5819 20.4403 22.2822 20.1988 22.0549C19.9573 21.8248 19.6462 21.7097 19.2655 21.7097C19.0042 21.7097 18.7599 21.7793 18.5326 21.9185C18.3081 22.0578 18.1263 22.2509 17.9871 22.4981C17.8508 22.7424 17.7826 23.0251 17.7826 23.3461V27.437H16.7769ZM26.8827 23.0734V22.4086L28.877 20.6359C29.0759 20.4597 29.2421 20.3021 29.3756 20.1629C29.5091 20.0237 29.61 19.8887 29.6782 19.758C29.7464 19.6274 29.7805 19.4881 29.7805 19.3404C29.7805 19.0847 29.6824 18.8816 29.4864 18.731C29.2904 18.5805 29.0475 18.5052 28.7577 18.5052C28.4509 18.5052 28.2037 18.5876 28.0162 18.7524C27.8287 18.9143 27.735 19.1274 27.735 19.3916H26.8486C26.8486 18.9058 27.029 18.5151 27.3898 18.2197C27.7506 17.9214 28.2123 17.7722 28.7748 17.7722C29.1498 17.7722 29.4793 17.8404 29.7634 17.9768C30.0475 18.1103 30.2691 18.295 30.4282 18.5308C30.5873 18.7637 30.6668 19.0279 30.6668 19.3234C30.6668 19.5563 30.6199 19.7722 30.5262 19.9711C30.4324 20.17 30.2861 20.3759 30.0873 20.589C29.8884 20.8021 29.6327 21.045 29.3202 21.3177L28.2123 22.2893V22.3234H30.8202V23.0734H26.8827Z" fill="white"/>
</svg>
